PathFileType	4	(X/Y/Z)	14_coords_data.trc
DataRate	CameraRate	NumFrames	NumMarkers	Units	OrigDataRate	OrigDataStartFrame	OrigNumFrames
30.0	30.0	9	21	m	30.0	55	65
Frame#	Time	THUMB_TIP	THUMB_IP	THUMB_MCP	THUMB_CMC	INDEX_TIP	INDEX_DIP	INDEX_PIP	INDEX_MCP	MIDDLE_TIP	MIDDLE_DIP	MIDDLE_PIP	MIDDLE_MCP	RING_TIP	RING_DIP	RING_PIP	RING_MCP	PINKY_TIP	PINKY_DIP	PINKY_PIP	PINKY_MCP	WRIST
X1	Y1	Z1	X2	Y2	Z2	X3	Y3	Z3	X4	Y4	Z4	X5	Y5	Z5	X6	Y6	Z6	X7	Y7	Z7	X8	Y8	Z8	X9	Y9	Z9	X10	Y10	Z10	X11	Y11	Z11	X12	Y12	Z12	X13	Y13	Z13	X14	Y14	Z14	X15	Y15	Z15	X16	Y16	Z16	X17	Y17	Z17	X18	Y18	Z18	X19	Y19	Z19	X20	Y20	Z20	X21	Y21	Z21
54	1.8	0.0020052099227905267	-0.057328201293945315	0.9827349853515625	-0.007177199840545654	-0.03825180053710937	0.9981519775390625	-0.022449399948120115	-0.02369260025024414	1.0184400024414062	-0.028155799865722655	0.007328440189361572	1.0323299560546875	0.01690719985961914	-0.017125600814819335	0.913344970703125	-0.001390619993209838	-0.014432999610900879	0.9237349853515625	-0.017543500900268554	-0.011364700317382813	0.9390360107421875	-0.02754520034790039	-0.004616889953613281	0.9740070190429687	0.024109500885009766	0.019504899978637694	0.8951500244140626	0.0070214300155639646	0.019904600143432618	0.911698974609375	-0.011734499931335449	0.019291700363159178	0.9327329711914063	-0.027815000534057617	0.01838129997253418	0.9687000122070313	0.03261220169067383	0.037637401580810546	0.9138400268554687	0.014804900169372559	0.039825599670410154	0.9265759887695313	-0.004517660140991211	0.040827301025390624	0.9430540161132812	-0.022618200302124022	0.03823429870605469	0.972760009765625	0.03441120147705078	0.06728479766845703	0.9504030151367188	0.017788299560546873	0.06563200378417969	0.9579030151367187	0.002675970077514648	0.06252289962768555	0.9663560180664063	-0.015864100456237793	0.05504819869995117	0.9832009887695312	-0.049188201904296874	0.0338130989074707	1.0428499755859375
55	1.8333333333333333	0.0029649000167846678	-0.05617729949951172	0.98214501953125	-0.006789559841156006	-0.037470401763916014	0.9979180297851562	-0.022371200561523436	-0.02330620002746582	1.0183599853515626	-0.028046199798583984	0.007593820095062256	1.0320899658203124	0.016391000747680663	-0.016104999542236327	0.9127470092773438	-0.00189119005203247	-0.013601799964904786	0.9234030151367187	-0.018109800338745118	-0.010668700218200683	0.9388270263671875	-0.028026899337768554	-0.004195670127868653	0.9738400268554688	0.023572299957275392	0.02032670021057129	0.8949869995117188	0.006370669841766358	0.02049570083618164	0.9117219848632813	-0.01238070011138916	0.01991640090942383	0.9328410034179687	-0.02847610092163086	0.01883799934387207	0.968614013671875	0.03214770126342773	0.03827880096435547	0.913906005859375	0.014253499984741212	0.040437801361083985	0.926406982421875	-0.005220180034637451	0.04143880081176758	0.9427999877929687	-0.023392900466918946	0.038749500274658205	0.9728510131835938	0.034033199310302735	0.06760299682617188	0.9505120239257813	0.01730400085449219	0.06601940155029297	0.9578989868164063	0.002160419940948486	0.06289830017089844	0.966281005859375	-0.016519500732421876	0.05551750183105469	0.9831580200195312	-0.04906029891967773	0.03396099853515625	1.0428199462890626
56	1.8666666666666667	0.0034549798965454103	-0.05541279983520508	0.9822050170898438	-0.0068203601837158205	-0.036991600036621095	0.998031982421875	-0.02246150016784668	-0.023058599472045898	1.0183599853515626	-0.028166000366210937	0.007753019809722901	1.0322099609375	0.0167593994140625	-0.01564610004425049	0.9134030151367187	-0.0016146700382232663	-0.013100500106811524	0.9236580200195312	-0.01795669937133789	-0.010206600189208985	0.9389600219726563	-0.028157800674438477	-0.0038367600440979	0.9739810180664062	0.024499700546264647	0.020574699401855467	0.8960910034179688	0.007206439971923828	0.020932300567626953	0.9121890258789063	-0.011921699523925782	0.02032349967956543	0.9330640258789062	-0.028455499649047852	0.019198299407958985	0.9688060302734375	0.0331604995727539	0.03848780059814453	0.9150869750976562	0.015148099899291992	0.0406880989074707	0.9274249877929688	-0.004607789993286133	0.041753700256347656	0.9432559814453125	-0.0231914005279541	0.039033500671386716	0.9729840087890625	0.03479809951782226	0.06735590362548828	0.95177197265625	0.017986900329589845	0.065989501953125	0.9588270263671875	0.002635410070419311	0.0630531005859375	0.9669619750976562	-0.016303800582885743	0.05576290130615234	0.9835380249023438	-0.049402099609375	0.03429750061035156	1.042969970703125
57	1.9	0.004688439846038818	-0.054221900939941406	0.9823510131835937	-0.006112569808959961	-0.03625619888305664	0.9982930297851562	-0.022115400314331055	-0.022681900024414062	1.018719970703125	-0.028102699279785155	0.007896339893341065	1.0327099609375	0.01700790023803711	-0.01524209976196289	0.9140079956054687	-0.0014791100025176999	-0.012704000473022461	0.9242589721679687	-0.017932600021362304	-0.009875120162963867	0.9394959716796875	-0.028274599075317382	-0.0036000499725341788	0.9744940185546875	0.024951900482177734	0.020787599563598633	0.89689501953125	0.0075045499801635746	0.02116189956665039	0.9129429931640625	-0.011731900215148926	0.020535400390625	0.9337059936523437	-0.028501699447631836	0.01945210075378418	0.9694400024414063	0.03432400131225586	0.03839860153198242	0.9169329833984375	0.01595330047607422	0.04074700164794922	0.92877001953125	-0.004035580158233643	0.0419385986328125	0.9441170043945313	-0.023324899673461914	0.03928079986572266	0.973739013671875	0.0357057991027832	0.06692150115966797	0.9535070190429688	0.01869890022277832	0.06578829956054688	0.9601589965820313	0.0030934500694274904	0.06303950119018555	0.9680349731445312	-0.01622249984741211	0.05594979858398438	0.9842830200195313	-0.0495536003112793	0.03443610000610352	1.0437099609375
58	1.9333333333333333	0.007461880207061768	-0.05132149887084961	0.981875	-0.004238870143890381	-0.034161598205566406	0.9982440185546875	-0.020764699935913088	-0.021658700942993166	1.0188800048828126	-0.02768589973449707	0.00839365005493164	1.0331199951171874	0.01742289924621582	-0.01417590045928955	0.9147520141601563	-0.0012383899688720701	-0.011850199699401855	0.9249219970703125	-0.017824600219726563	-0.009231829643249511	0.9399879760742188	-0.028377599716186523	-0.003243079900741577	0.9749210205078125	0.025599599838256836	0.02142900085449219	0.8981610107421875	0.007807809829711914	0.021805599212646486	0.913927978515625	-0.011643699645996094	0.02106019973754883	0.9342630004882813	-0.028746400833129883	0.019834100723266603	0.9699500122070313	0.035532299041748046	0.038737499237060546	0.9193410034179688	0.016880500793457032	0.04109410095214844	0.93035498046875	-0.003687099933624267	0.04238949966430664	0.9450180053710937	-0.023809099197387697	0.03966009902954101	0.9743380126953125	0.03617539978027344	0.06663970184326172	0.955531005859375	0.019027000427246095	0.06581109619140625	0.9616610107421875	0.003134459972381592	0.0632859001159668	0.9690349731445312	-0.01677359962463379	0.05635160064697266	0.9849760131835937	-0.049586700439453124	0.03461550140380859	1.0444000244140625
59	1.9666666666666666	0.00969647979736328	-0.04893170166015625	0.9823660278320312	-0.003029129981994629	-0.0325103988647461	0.998655029296875	-0.020276899337768554	-0.020695100784301756	1.01927001953125	-0.027691499710083008	0.008963700294494628	1.033530029296875	0.01834539985656738	-0.013071100234985351	0.9161920166015625	-0.00043093198537826505	-0.010868200302124023	0.925802978515625	-0.017428699493408202	-0.008439209938049317	0.9405369873046875	-0.028701900482177734	-0.002758310079574585	0.9754520263671875	0.02802669906616211	0.021960100173950194	0.9008400268554687	0.0096496000289917	0.02241200065612793	0.9156599731445313	-0.010627099990844727	0.021684900283813476	0.9352839965820312	-0.0289960994720459	0.02034320068359375	0.9704810180664063	0.038194698333740236	0.03896879959106445	0.9235380249023437	0.019093700408935547	0.041583698272705076	0.9329990234375	-0.002421700000762939	0.043106399536132815	0.9465869750976562	-0.024302999496459962	0.040194400787353514	0.9750609741210937	0.03725820159912109	0.0660146026611328	0.9585239868164063	0.019844600677490234	0.0656272964477539	0.963656982421875	0.003467390060424804	0.06354600143432618	0.9702999877929688	-0.017255300521850585	0.05693529891967773	0.985697021484375	-0.049964099884033206	0.03497000122070312	1.04468994140625
60	2.0	0.010214300155639648	-0.04734749984741211	0.9825679931640625	-0.00318595004081726	-0.03148780059814453	0.9990850219726563	-0.02071109962463379	-0.020019500732421876	1.0196300048828124	-0.02843320083618164	0.009433480262756347	1.0340799560546876	0.020650800704956056	-0.011971599578857422	0.9185670166015625	0.001367570042610168	-0.009883410453796386	0.927344970703125	-0.016221799850463868	-0.007637040138244629	0.9414329833984375	-0.028963600158691406	-0.002326620101928711	0.975802978515625	0.03291400146484375	0.02171419906616211	0.9059359741210937	0.013404800415039062	0.022522199630737306	0.9189210205078125	-0.008412859916687011	0.02203499984741211	0.9368179931640624	-0.029425300598144532	0.020936899185180664	0.9708280029296875	0.04146369934082031	0.038096900939941405	0.9287139892578125	0.021806999206542967	0.04126110076904297	0.9365260009765625	-0.000639279007911682	0.04322249984741211	0.9482490234375	-0.024682199478149414	0.040751201629638675	0.9755009765625	0.03868769836425781	0.06443779754638672	0.9626849975585937	0.02107119941711426	0.06486260223388672	0.9663660278320313	0.004217179775238037	0.06335260009765625	0.9719400024414062	-0.017719499588012694	0.05751470184326172	0.9864130249023437	-0.05070389938354492	0.03533829879760742	1.0453599853515625
61	2.033333333333333	0.010814000129699707	-0.04544459915161133	0.9824949951171875	-0.0028513400554656984	-0.030151599884033202	0.9991690063476563	-0.020578899383544923	-0.019247900009155272	1.01997998046875	-0.0287091007232666	0.00991759967803955	1.0345899658203126	0.022794700622558593	-0.010909500122070313	0.9216719970703126	0.003060849905014038	-0.009071860313415527	0.9293820190429688	-0.01509910011291504	-0.007116819858551025	0.9424559936523438	-0.029490699768066408	-0.002265330076217651	0.97660302734375	0.035899799346923826	0.02094179916381836	0.910208984375	0.015604499816894532	0.022120500564575197	0.9216699829101562	-0.007249090194702148	0.02202120018005371	0.9381959838867188	-0.02994759941101074	0.021185699462890624	0.9715260009765625	0.042629100799560546	0.0370968017578125	0.9317150268554687	0.022824800491333008	0.04060440063476563	0.9386170043945312	-0.00024385699629783604	0.04304230117797852	0.9493619995117187	-0.025256000518798827	0.040915699005126954	0.9761699829101562	0.039278800964355466	0.0630718994140625	0.965385986328125	0.0214468994140625	0.06401529693603515	0.9680960083007812	0.004259069919586181	0.06302080154418946	0.9730830078125	-0.018247900009155275	0.05766619873046875	0.9868410034179688	-0.05100189971923828	0.03568960189819336	1.0456199951171874
62	2.066666666666667	0.012139900207519531	-0.04316080093383789	0.98275	-0.001999969959259033	-0.028534000396728515	0.999510009765625	-0.020117000579833986	-0.018378400802612306	1.0202000122070312	-0.028694299697875975	0.010361499786376953	1.0348299560546874	0.023669099807739256	-0.010891599655151367	0.9240609741210938	0.003685349941253662	-0.00905303955078125	0.9310479736328126	-0.015034099578857422	-0.0072121100425720204	0.943666015625	-0.030273399353027343	-0.0023949599266052243	0.97722900390625	0.0364541015625	0.019671899795532227	0.9126069946289063	0.01588990020751953	0.021126100540161133	0.9232249755859375	-0.0075391998291015625	0.021442399978637696	0.9389819946289063	-0.0309197998046875	0.021057899475097657	0.971926025390625	0.042377601623535155	0.036130298614501954	0.9331099853515625	0.022402999877929687	0.039850898742675785	0.939405029296875	-0.0008543930053710931	0.0425723991394043	0.9497550048828125	-0.026191099166870117	0.04081930160522461	0.9765070190429688	0.038622600555419925	0.0620625	0.9662020263671875	0.020862400054931642	0.06341170120239258	0.9685239868164063	0.003506979942321777	0.06264350128173828	0.97318701171875	-0.019159099578857423	0.05772890090942383	0.986968017578125	-0.051436798095703125	0.035961700439453126	1.046050048828125
